<?xml version="1.0" standalone="yes"?>
<svg xmlns="http://www.w3.org/2000/svg" width="512" height="512">
<path style="fill:#d3c9bc; stroke:none;" d="M0 0L0 512L249 512L249 511C226.867 507.683 208.848 486.284 195.8 470C169.564 437.256 143.037 404.745 116.8 372C102.353 353.97 84.4199 336.419 79.5139 313C74.1892 287.583 87.8823 260.699 116 259.209C130.357 258.448 145.126 266.021 156 274.666C178.745 292.749 190.164 323.523 213 341L213 85C213 53.3075 207.696 10.3508 248 1L225 0L175 0L0 0z"/>
<path style="fill:#524942; stroke:none;" d="M213 341C190.109 316.13 172.623 279.456 141 264.63C104.584 247.558 72.5914 274.607 79.321 313C83.4237 336.406 101.718 354.22 115.999 372C137.438 398.69 159.015 425.268 180.4 452C192.458 467.074 204.082 485.329 220 496.561C227.051 501.536 234.835 506.981 243 509.91C278.119 522.508 301.823 488.205 321.081 465C346.495 434.378 371.08 403.025 396.001 372C416.066 347.019 442.839 318.989 431.25 284C423.261 259.881 396.185 255.497 375 263.015C342.644 274.498 325.076 312.015 303 336L303 68C303 55.8937 304.546 42.7238 301.087 31C294.47 8.56915 271.397 -3.40723 249 0.325623C207.929 7.17087 213 52.2358 213 83L213 341z"/>
<path style="fill:#d3c9bc; stroke:none;" d="M268 0L268 1C308.057 10.2715 303 52.437 303 84L303 336C324.561 319.499 335.259 290.7 357 273.888C367.671 265.636 382.079 258.472 396 259.209C424.118 260.699 437.811 287.583 432.486 313C427.662 336.03 410.234 353.28 396.001 371C369.992 403.38 343.888 435.682 317.803 468C304.972 483.898 288.777 507.784 267 511L267 512L512 512L512 0L268 0z"/>
</svg>
