<?xml version="1.0" standalone="yes"?>
<svg xmlns="http://www.w3.org/2000/svg" width="512" height="512">
<path style="fill:#ffffff; stroke:none;" d="M0 0L0 512L89 512L89 511C78.1533 504.594 76.0281 487.452 90.0008 482.703C95.9003 480.698 103.83 482 110 482L152 482L377 482C389.836 482 410.07 478.156 421.999 483.009C435.397 488.46 433.398 505.037 422 511L422 512L512 512L512 0L269 0L269 1C320.078 3.22711 356.567 59.3414 350.714 107C348.102 128.266 337.269 142.15 327 160C334.536 160 344.177 158.427 350.996 162.279C362.091 168.544 361.237 183.895 349.999 189.543C338.876 195.134 317.343 191 305 191L210 191C195.688 191 177.914 193.849 164 190.467C151.592 187.451 148.225 171.628 158.174 163.8C165.225 158.253 175.615 160 184 160C174.912 140.154 163.019 126.859 160.285 104C154.728 57.5311 193.141 3.13034 242 1L220 0L171 0L0 0z"/>
<path style="fill:#8eb7b8; stroke:none;" d="M184 160C176.184 160 166.049 158.27 159.09 162.533C149.869 168.182 149.455 183.302 159.015 188.91C170.145 195.44 193.337 191 206 191L302 191C316.341 191 334.028 193.817 348 190.606C359.847 187.883 363.187 171.053 353.895 163.569C346.923 157.953 335.344 160 327 160C337.88 146.501 346.1 132.15 349.551 115C352.317 101.251 352.009 85.6001 348.625 72C345.395 59.0203 339.633 46.5366 331.331 36C283.149 -25.15 179.706 -4.20544 162.425 73C159.863 84.4483 159.07 96.3585 160.729 108C163.642 128.432 172.574 143.274 184 160M186 220C177.964 263.13 174.002 307.496 168.282 351C166.228 366.621 166.333 384.845 161.697 399.892C159.854 405.872 145.953 408.862 141 412.681C128.78 422.1 121.219 436.684 120 452L391 452C390.669 436.074 381.607 421.138 369 411.761C363.738 407.847 351.636 405.453 349.569 398.956C342.486 376.694 342.768 349.19 339.718 326C335.167 291.39 326.289 254.889 326 220L186 220M89.0039 482.703C76.3747 487.027 76.8643 508.294 90.0008 511.581C97.9032 513.559 107.874 512 116 512L170 512L344 512L403 512C410.417 512 420.82 513.951 426.811 508.606C434.914 501.375 432.815 486.06 421.999 482.653C405.64 477.499 381.169 482 364 482L173 482L116 482C107.859 482 96.754 480.049 89.0039 482.703z"/>
</svg>
