<?xml version="1.0" standalone="yes"?>
<svg xmlns="http://www.w3.org/2000/svg" width="512" height="512">
<path style="fill:#d3c9bc; stroke:none;" d="M0 0L0 512L244 512L244 511C203.942 501.728 209 459.563 209 428L209 176C187.439 192.501 176.741 221.3 155 238.112C144.329 246.364 129.921 253.529 116 252.791C87.8823 251.301 74.1892 224.417 79.5139 199C84.3384 175.97 101.766 158.72 115.999 141C142.008 108.62 168.112 76.3185 194.197 44C207.028 28.1023 223.223 4.21622 245 1L222 0L173 0L0 0z"/>
<path style="fill:#524942; stroke:none;" d="M209 176L209 444C209 456.106 207.454 469.276 210.913 481C217.53 503.431 240.603 515.407 263 511.674C304.071 504.829 299 459.764 299 429L299 171C321.891 195.87 339.377 232.544 371 247.37C407.416 264.442 439.409 237.393 432.679 199C428.576 175.594 410.282 157.78 396.001 140C374.562 113.31 352.985 86.7322 331.6 60C319.542 44.9259 307.918 26.671 292 15.439C284.949 10.4636 277.165 5.01941 269 2.09027C233.881 -10.5081 210.177 23.795 190.919 47C165.505 77.6219 140.92 108.975 115.999 140C95.9337 164.981 69.1614 193.011 80.75 228C88.7385 252.119 115.815 256.503 137 248.985C169.356 237.502 186.924 199.985 209 176z"/>
<path style="fill:#d3c9bc; stroke:none;" d="M263 0L263 1C285.133 4.31763 303.152 25.716 316.2 42C342.436 74.744 368.963 107.255 395.2 140C409.647 158.03 427.58 175.581 432.486 199C437.811 224.417 424.118 251.301 396 252.791C381.643 253.552 366.874 245.979 356 237.334C333.255 219.251 321.836 188.477 299 171L299 427C299 458.693 304.304 501.649 264 511L264 512L512 512L512 0L263 0z"/>
</svg>
